<svg width="192" height="192" viewBox="0 0 192 192" fill="none" xmlns="http://www.w3.org/2000/svg">
<path fill-rule="evenodd" clip-rule="evenodd" d="M43.1187 19.9011C46.471 17.3261 50.0208 14.9871 53.7449 12.9086L54.2699 12.3656C54.3397 12.2814 54.4135 12.1919 54.4913 12.0978L54.4977 12.0899C56.3937 9.79263 60.5812 4.71866 65.3392 3.66408C69.4231 2.7589 75.8895 3.24107 79.6929 3.52471C80.5077 3.58548 81.2007 3.63715 81.7217 3.66409C82.0443 3.68078 81.5432 3.80711 80.6681 4.02752C79.144 4.41151 76.487 5.08106 75.0801 5.95396C74.0934 6.56634 73.1782 7.58699 72.2022 8.67549C70.7737 10.2687 69.2147 12.0074 67.1103 12.8236C64.8284 13.7087 59.5224 13.5643 55.7698 13.3948C55.7444 13.4134 55.7174 13.4303 55.689 13.4455C51.4681 15.7097 47.4668 18.3107 43.7186 21.2124C47.1969 21.4083 49.223 20.2292 50.9658 19.2151C51.7942 18.733 52.5586 18.2882 53.3844 18.0459C57.8288 16.7424 60.7322 17.5195 63.1253 18.16C63.5931 18.2852 64.0416 18.4052 64.4781 18.5035C66.6138 18.984 68.9836 18.569 70.0028 18.0459C69.5171 18.3273 68.9247 18.7232 68.2439 19.1782C65.4419 21.0511 61.143 23.9244 56.6283 23.9244C53.274 23.9244 51.3189 23.1984 49.7998 22.6345C48.8347 22.2762 48.0457 21.9833 47.1857 21.9833L43.5953 21.308C38.7009 25.1115 34.2401 29.4288 30.2882 34.18L33.9025 33.4324C35.2308 32.9744 37.0019 31.6921 38.773 30.2265C40.9869 28.3946 44.529 27.4786 49.3995 27.0206C53.2959 26.6542 55.1555 26.5627 55.5983 26.5627C54.4176 26.7153 51.4362 27.5703 48.9568 29.7685C48.472 30.1983 48.0305 30.6057 47.6171 30.9872C45.3877 33.0447 43.975 34.3483 40.9869 34.3483H30.1486C26.3476 38.9421 23.0209 43.9389 20.2364 49.2669L21.9874 48.2745C22.7531 47.6253 24.6381 45.8684 26.052 44.0341C27.8194 41.7412 31.0781 40.0378 35.7302 38.4773C39.4518 37.2288 41.3989 36.7393 41.8308 36.6381C40.7119 37.0569 38.4657 38.9649 36.5175 41.6758C34.0822 45.0645 32.4448 46.3614 28.9904 47.1716C27.5456 47.5103 25.4364 48.1142 23.4232 48.6906C22.2044 49.0396 21.0209 49.3784 20.0413 49.6424C19.3254 51.029 18.646 52.4378 18.0044 53.8675C16.1317 58.0408 14.6067 62.3351 13.4333 66.7074L14.9354 65.4546C15.3009 65.0119 16.1089 63.6436 16.9691 62.1865C17.6222 61.0806 18.3056 59.9233 18.8484 59.081C20.6194 56.3332 23.5471 54.6224 28.2115 51.9292C31.4395 50.0655 33.2273 49.2963 33.7933 49.0528L33.8788 49.0159L33.9026 49.0056C32.8728 49.622 30.9873 51.9099 29.532 54.9339C27.7129 58.7138 24.9025 61.6631 21.6404 63.091C20.2761 63.6881 18.303 64.6675 16.4197 65.6022C15.3083 66.1538 14.228 66.69 13.3229 67.1228C11.966 72.2829 11.0978 77.5497 10.7247 82.8533L11.9327 81.3513C12.1816 80.8897 12.664 79.5225 13.1779 78.0667C13.5679 76.9615 13.976 75.805 14.3137 74.9549C15.4149 72.1816 17.7249 70.1174 21.4108 66.8578C23.9615 64.6019 25.4198 63.5867 25.8814 63.2653L25.939 63.2252L25.9706 63.203C25.1606 63.9422 23.8779 66.3272 23.1054 69.2878C22.1399 72.9886 20.1484 76.1333 17.4919 78.0075C16.3809 78.7913 14.794 80.0278 13.2794 81.2081C12.3507 81.9319 11.449 82.6345 10.701 83.1985C10.359 88.3583 10.4853 93.5513 11.0857 98.714L11.5184 97.9738C11.6977 97.4788 11.9772 96.0525 12.2748 94.5329C12.5006 93.3797 12.737 92.1736 12.9479 91.2809C13.6359 88.3685 15.6214 85.9702 18.7947 82.1771C20.9907 79.5521 22.2858 78.3227 22.6957 77.9335C22.7274 77.9035 22.7538 77.8784 22.7749 77.8582C22.0809 78.7144 21.1574 81.271 20.8217 84.3177C20.4019 88.1262 18.8874 91.5436 16.5316 93.8076C15.5464 94.7548 14.1561 96.2221 12.8292 97.6233C12.2495 98.2358 11.6815 98.8361 11.1649 99.3731C11.5876 102.777 12.2166 106.165 13.0537 109.521C13.6541 111.929 14.3572 114.3 15.1591 116.633C15.1855 115.958 15.1475 114.728 15.1074 113.432C15.0711 112.256 15.0331 111.026 15.04 110.107C15.0625 107.109 16.4622 104.303 18.7077 99.8569C20.2618 96.7805 21.2492 95.2759 21.5616 94.7995L21.5957 94.7473L21.6219 94.7072C21.1366 95.7057 20.8059 98.4138 21.1561 101.459C21.5936 105.265 20.879 108.951 19.0892 111.714C18.9021 112.003 18.6963 112.311 18.48 112.634C17.4748 114.139 16.2416 115.984 15.5898 117.854C17.3491 122.729 19.5428 127.417 22.136 131.868L22.2298 130.18C22.1677 129.681 21.7892 128.353 21.3862 126.939C21.0803 125.865 20.7604 124.741 20.5538 123.894C19.8799 121.128 20.5184 118.198 21.5558 113.548C22.2737 110.33 22.8342 108.7 23.0116 108.185C23.0253 108.145 23.0368 108.112 23.0458 108.085C22.8303 109.124 23.1531 111.699 24.181 114.416C25.4656 117.811 25.6617 121.382 24.6541 124.37C24.2328 125.619 23.6951 127.493 23.1819 129.281C22.8805 130.331 22.5872 131.354 22.3312 132.202C25.3891 137.395 28.9929 142.262 33.0869 146.715L32.5739 144.265C32.1311 142.891 31.2135 140.616 30.4623 138.755C29.4047 136.134 29.616 133.151 29.9752 128.414C30.2238 125.136 30.5437 123.445 30.6449 122.91L30.6583 122.839L30.6643 122.807C30.6001 123.863 31.2848 126.349 32.684 128.868C34.4329 132.016 35.1346 135.503 34.568 138.599C34.331 139.893 34.0684 141.821 33.8177 143.661C33.6515 144.881 33.4905 146.063 33.3458 146.996C36.4792 150.373 39.8963 153.51 43.5724 156.369C44.3184 156.949 45.0729 157.516 45.8356 158.07L45.3762 156.628C45.1427 156.189 44.3232 155.102 43.4505 153.944C42.7882 153.065 42.0949 152.145 41.6043 151.438C40.0036 149.131 39.5604 146.174 38.8797 141.476C38.4086 138.223 38.3523 136.502 38.3345 135.957L38.3323 135.893L38.3309 135.852C38.4982 136.896 39.7064 139.159 41.6177 141.288C44.0068 143.948 45.4491 147.181 45.5707 150.33C45.6216 151.647 45.7851 153.586 45.9412 155.437C46.0279 156.464 46.1121 157.463 46.1737 158.314C50.0949 161.132 54.2298 163.602 58.5304 165.707C58.1606 165.254 57.2848 164.377 56.3577 163.45C55.5834 162.674 54.773 161.863 54.192 161.234C52.2961 159.179 51.4593 156.316 50.1526 151.761C49.2482 148.608 48.9607 146.912 48.8698 146.375L48.8622 146.33L48.852 146.271C49.1583 147.281 50.6594 149.348 52.8386 151.181C55.5627 153.471 57.4262 156.465 57.9705 159.565C58.3093 161.495 58.829 164.191 59.4602 166.155C64.4532 168.525 69.6626 170.407 75.0142 171.777C74.1877 171.243 73.1931 170.706 72.0949 170.247C68.8414 168.883 66.2111 166.585 64.8123 163.785C64.2273 162.615 63.2852 160.93 62.3862 159.322C61.669 158.039 60.9779 156.802 60.5186 155.917L62.4106 157.995C62.8017 158.29 63.9892 158.916 65.2538 159.583L65.2627 159.587C66.2197 160.093 67.2204 160.62 67.9521 161.045C70.3468 162.435 71.9582 164.918 74.4984 168.877C75.3889 170.264 76.022 171.343 76.4618 172.134C81.5018 173.33 86.6607 174.074 91.8783 174.345L90.5768 173.575C90.2497 173.366 89.2889 173.026 88.2028 172.64C87.0771 172.241 85.8171 171.793 84.9897 171.396C82.7014 170.299 81.0466 168.142 78.4365 164.701C76.6294 162.32 75.8264 160.969 75.5731 160.542C75.5533 160.509 75.5371 160.481 75.5235 160.459C76.1166 161.216 78.0733 162.462 80.5302 163.271C83.6009 164.281 86.1713 166.193 87.6549 168.655C88.2749 169.685 89.6224 171.034 90.9076 172.323C91.6394 173.056 92.3506 173.769 92.8976 174.391C94.1162 174.44 95.3383 174.463 96.5623 174.459C98.9236 174.453 101.277 174.349 103.616 174.151C104.057 173.527 104.609 172.778 105.29 171.898C108.162 168.189 109.982 165.864 112.486 164.701C113.254 164.345 114.3 163.91 115.299 163.494C116.616 162.947 117.853 162.433 118.269 162.174L120.332 160.279C119.798 161.118 119.004 162.284 118.179 163.497C117.145 165.016 116.061 166.608 115.377 167.72C113.743 170.379 110.924 172.425 107.566 173.483C107.196 173.6 106.836 173.726 106.489 173.858C109.508 173.499 112.501 172.981 115.452 172.308C115.837 171.602 116.289 170.795 116.751 169.967C117.651 168.358 118.592 166.672 119.177 165.503C120.576 162.704 123.207 160.406 126.461 159.042C129.063 157.95 131.084 156.429 131.663 155.556C131.65 155.582 131.635 155.613 131.617 155.651C131.377 156.136 130.622 157.671 128.863 160.411C126.324 164.37 124.712 166.853 122.317 168.243C121.584 168.668 120.58 169.198 119.62 169.704C118.355 170.371 117.167 170.998 116.776 171.293L115.958 172.191C121.623 170.864 127.138 168.965 132.416 166.524C133.103 164.54 133.669 161.62 134.03 159.565C134.574 156.465 136.437 153.471 139.162 151.181C141.341 149.348 142.842 147.281 143.148 146.271C143.143 146.299 143.137 146.334 143.13 146.375C143.039 146.912 142.752 148.608 141.847 151.761C140.541 156.316 139.704 159.179 137.808 161.234C137.227 161.863 136.417 162.674 135.643 163.449C134.623 164.471 133.665 165.429 133.374 165.83L133.07 166.219C137.498 164.127 141.755 161.652 145.792 158.812C145.854 157.867 145.955 156.671 146.059 155.437C146.215 153.586 146.378 151.647 146.43 150.329C146.551 147.181 147.993 143.948 150.383 141.288C152.293 139.159 153.502 136.896 153.67 135.852C153.668 135.88 153.667 135.915 153.666 135.957C153.648 136.502 153.591 138.223 153.121 141.476C152.439 146.174 151.997 149.131 150.396 151.438C149.905 152.145 149.212 153.065 148.549 153.944C147.677 155.102 146.858 156.189 146.624 156.628L145.967 158.689C147.15 157.853 148.312 156.985 149.455 156.087C152.774 153.478 155.878 150.641 158.75 147.604L158.739 147.545C158.743 147.566 158.747 147.582 158.75 147.604C162.991 143.12 166.727 138.2 169.896 132.938C169.594 131.986 169.213 130.659 168.818 129.282C168.306 127.493 167.767 125.619 167.346 124.369C166.338 121.382 166.535 117.811 167.819 114.416C168.847 111.699 169.17 109.124 168.954 108.085C168.963 108.111 168.974 108.145 168.989 108.185C169.166 108.7 169.726 110.331 170.444 113.548C171.482 118.198 172.12 121.128 171.447 123.894C171.24 124.741 170.92 125.864 170.615 126.937C170.212 128.351 169.832 129.681 169.77 130.18L169.921 132.896C170.067 132.655 170.211 132.413 170.353 132.169C170.247 132.238 170.146 132.302 170.053 132.358C170.173 132.239 170.315 132.103 170.472 131.95C170.479 131.944 170.487 131.936 170.495 131.929C172.922 127.77 175.001 123.403 176.702 118.872C176.212 116.663 174.706 114.411 173.519 112.634C173.303 112.311 173.097 112.003 172.91 111.714C171.12 108.951 170.406 105.265 170.844 101.459C171.193 98.4138 170.863 95.7057 170.378 94.7072C170.394 94.7324 170.414 94.7632 170.438 94.7995C170.75 95.2759 171.738 96.7796 173.291 99.8569C175.537 104.303 176.937 107.109 176.96 110.107C176.966 111.026 176.928 112.256 176.892 113.432C176.844 114.981 176.799 116.436 176.863 116.96V118.436C177.99 115.385 178.945 112.261 179.722 109.076C180.456 106.066 181.023 103.03 181.423 99.9819C180.767 99.3097 179.981 98.4791 179.171 97.6242C177.844 96.2231 176.453 94.7548 175.468 93.8076C173.112 91.5439 171.598 88.1264 171.178 84.318C170.843 81.2711 169.919 78.7146 169.225 77.8584C169.246 77.8787 169.273 77.9037 169.304 77.9338C169.714 78.3229 171.009 79.5523 173.205 82.1774C176.378 85.9705 178.364 88.3687 179.052 91.2811C179.262 92.1737 179.499 93.3797 179.725 94.5329C180.022 96.0515 180.302 97.4788 180.481 97.9738L181.465 99.6574C182.141 94.3577 182.317 89.0222 181.998 83.7202L181.938 83.6784L181.93 83.6681C181.953 83.6847 181.975 83.704 181.998 83.7202C181.668 78.2463 180.812 72.8054 179.436 67.4798C178.413 67.008 177.024 66.3182 175.581 65.6022C173.698 64.6676 171.724 63.6881 170.36 63.091C167.098 61.6631 164.288 58.7138 162.469 54.9339C161.013 51.9099 159.128 49.622 158.098 49.0056C158.127 49.0183 158.163 49.034 158.208 49.0528C158.774 49.2963 160.561 50.0654 163.789 51.9292C168.453 54.6224 171.381 56.3332 173.152 59.081C173.695 59.9234 174.378 61.0806 175.032 62.1866C175.892 63.6437 176.7 65.0119 177.065 65.4546L179.42 67.4189C178.185 62.654 176.534 57.9795 174.473 53.4501C173.919 52.2326 173.337 51.0306 172.729 49.8448C171.639 49.5673 170.136 49.1373 168.577 48.6907C166.563 48.1143 164.454 47.5103 163.01 47.1716C159.555 46.3614 157.917 45.0645 155.482 41.6758C153.534 38.9649 151.287 37.0569 150.169 36.6381C150.601 36.7393 152.547 37.2288 156.27 38.4773C160.921 40.0378 164.18 41.7412 165.948 44.0341C167.362 45.8684 169.247 47.6253 170.013 48.2745L172.707 49.8014C169.971 44.4771 166.698 39.4792 162.952 34.8781H152.52C149.532 34.8781 148.119 33.5745 145.89 31.517C145.477 31.1362 145.033 30.7272 144.55 30.2984C142.071 28.1001 139.089 27.2452 137.909 27.0925C138.351 27.0925 140.211 27.1841 144.107 27.5505C148.977 28.0084 152.52 28.9244 154.734 30.7563C156.505 32.2219 158.276 33.5042 159.605 33.9622L162.732 34.6092C158.658 29.6456 154.033 25.1485 148.941 21.2072L144.814 21.9833C143.954 21.9833 143.165 22.2762 142.2 22.6345C140.681 23.1984 138.725 23.9244 135.372 23.9244C130.857 23.9244 126.558 21.0511 123.756 19.1782C123.075 18.7233 122.482 18.3273 121.997 18.0459C123.016 18.569 125.386 18.984 127.521 18.5035C127.959 18.4052 128.407 18.2852 128.874 18.16C131.267 17.5195 134.171 16.7424 138.615 18.0459C139.441 18.2882 140.205 18.733 141.034 19.2151C142.876 20.2868 145.033 21.5425 148.886 21.1656C145.112 18.2487 141.082 15.6371 136.83 13.3669C133.066 13.5455 127.296 13.7571 124.89 12.8236C122.785 12.0074 121.226 10.2687 119.797 8.67549C118.821 7.58699 117.907 6.56634 116.92 5.95396C115.513 5.08106 112.856 4.41151 111.332 4.02752C110.456 3.80711 109.955 3.68078 110.278 3.66409C110.799 3.63715 111.492 3.58548 112.307 3.52471C116.11 3.24107 122.577 2.7589 126.661 3.66408C131.419 4.71867 135.606 9.79244 137.501 12.0898C137.524 12.1163 137.546 12.1426 137.566 12.1684C141.445 14.2443 145.143 16.5999 148.633 19.2087C148.347 18.461 147.964 17.6244 147.471 16.9451C146.752 15.9541 146.163 15.4992 145.423 14.9278C144.796 14.443 144.059 13.8744 143.043 12.8233C141.536 11.265 140.645 9.70667 139.671 8.00399C139.214 7.20469 138.738 6.37358 138.173 5.49574C136.756 3.29744 134.04 0.915955 132.859 0L142.157 5.95371C143.634 7.02233 146.85 10.0755 147.913 13.7394C148.598 16.1012 148.952 18.2093 149.117 19.5729C152.92 22.4566 156.473 25.6426 159.742 29.0957C159.682 28.9889 159.62 28.8815 159.558 28.7733C158.716 27.321 157.951 26.2025 157.297 25.2473C155.999 23.3496 155.142 22.0961 154.998 20.1513C154.843 18.0619 153.778 14.4339 153.352 12.9831L153.347 12.9661C153.298 12.8003 153.259 12.6638 153.23 12.5625L151.761 9.59443L151.459 9.25976C152.228 10.1115 153.667 11.517 155.171 12.9865C156.819 14.5964 158.546 16.2836 159.558 17.4034C161.808 19.8962 161.906 22.4271 162.049 26.1685C162.06 26.4459 162.07 26.7299 162.082 27.0209C162.129 28.1526 162.116 29.2374 162.104 30.2168C162.098 30.7377 162.091 31.2289 162.095 31.6816C165.079 35.0976 167.797 38.7489 170.223 42.6047C169.592 40.9995 168.953 39.4537 168.361 38.4133C167.311 36.5694 167.316 34.0848 167.321 31.5166C167.326 29.6879 167.329 27.8168 166.953 26.1044C166.432 23.7361 165.551 22.3009 164.914 21.2634C164.654 20.8379 164.434 20.4793 164.296 20.1507C164.348 20.2414 164.599 20.4693 164.975 20.8111C166.237 21.9562 168.907 24.379 170.195 27.1966C172.285 31.7697 173.32 35.3915 172.917 38.2943C172.596 40.6165 172.652 43.2404 172.719 44.262L172.713 46.8245C173.802 48.7938 174.816 50.8101 175.754 52.8698C176.707 54.9645 177.574 57.0898 178.355 59.2403C178.25 58.5836 178.14 57.916 178.022 57.2493C177.353 53.4377 177.443 49.8884 177.527 46.6012C177.554 45.5458 177.58 44.5111 177.58 43.5099C177.58 40.2125 176.399 36.6402 175.809 35.2663C176.251 35.5716 177.846 37.6478 180.679 43.5099C184.065 50.5142 182.596 55.0078 181.687 57.7906C181.645 57.9191 181.604 58.0439 181.565 58.1652C180.857 60.3635 180.385 63.3556 180.237 64.5769L180.157 64.7828C181.504 69.4511 182.453 74.2139 183.001 79.0205C183.065 77.7679 183.119 76.4231 183.147 75.0764C183.226 71.2032 184.001 67.7442 184.718 64.5407C184.949 63.5103 185.174 62.5054 185.368 61.5227C186.004 58.2918 185.538 54.5475 185.225 53.0793C185.599 53.47 186.76 55.8337 188.404 62.1634C190.368 69.7263 188.061 73.8256 186.632 76.3643L186.53 76.5473L186.44 76.7061C186.062 77.3856 185.606 78.1473 185.153 78.903C184.404 80.1529 183.666 81.3864 183.304 82.2035C183.671 86.9777 183.643 91.7837 183.215 96.5717C183.964 94.9934 184.826 92.9862 185.106 90.6806C185.493 87.5058 186.373 85.608 187.271 83.6716C187.809 82.5093 188.355 81.3332 188.804 79.8587C189.762 76.7136 189.673 72.9395 189.509 71.4456C189.843 71.8744 190.76 74.35 191.761 80.8219C193.011 88.9118 189.064 92.9929 186.877 94.8023C186.387 95.2088 185.921 95.5817 185.487 95.9294C184.472 96.7423 183.633 97.4145 183.072 98.0297C182.666 101.845 182.006 105.646 181.089 109.408C180.621 111.33 180.088 113.231 179.492 115.107C179.788 114.545 180.048 113.901 180.236 113.122C181.121 109.458 183.582 105.337 184.911 103.505C185.574 102.588 186.46 101.788 187.345 100.986C188.231 100.184 189.117 99.3824 189.781 98.467C190.844 97.0015 191.405 93.2763 191.552 91.5972C191.699 91.7499 191.907 93.3378 191.552 98.467C191.109 104.879 188.009 109 184.911 111.749C184.076 112.488 183.073 113.335 182.059 114.191C180.952 115.127 179.829 116.074 178.9 116.906C177.582 120.767 175.996 124.519 174.16 128.138C174.807 127.388 175.393 126.633 175.809 125.946L176.016 125.604C177.609 122.969 178.687 121.184 180.219 120.07C181.017 119.488 181.972 119.066 182.925 118.643C183.88 118.221 184.833 117.798 185.632 117.217C186.91 116.288 188.362 113.321 188.928 111.955C189.012 112.124 188.767 113.514 187.117 117.717C185.056 122.97 181.228 125.242 178.047 126.984C176.336 127.92 174.557 129.17 173.047 130.259C170.307 135.311 167.071 140.083 163.384 144.504C164.398 143.7 165.401 142.829 166.148 142.017C168.368 139.604 170.053 137.852 171.824 136.937C172.944 136.357 174.539 135.736 176.133 135.115C176.93 134.805 177.728 134.494 178.466 134.189C179.953 133.573 181.785 130.818 182.696 129.446C182.768 129.339 182.833 129.239 182.893 129.151C182.942 129.334 181.398 133.687 178.969 137.463C175.932 142.183 171.821 143.951 168.288 144.664C166.271 145.072 163.644 145.844 161.7 146.462C158.509 150.065 155.011 153.414 151.229 156.469C152.257 155.987 153.276 155.422 154.113 154.799C156.726 152.85 158.577 152.115 160.48 151.662C161.431 151.436 162.469 151.417 163.506 151.399C164.544 151.379 165.582 151.36 166.533 151.134C168.055 150.772 170.482 148.593 171.506 147.548C171.521 147.738 170.787 148.929 167.727 152.177C163.901 156.236 159.485 156.602 155.884 156.63C154.118 156.643 151.881 157.057 150.015 157.433C146.48 160.186 142.756 162.649 138.879 164.811C139.067 164.719 139.248 164.625 139.421 164.531C141.879 163.191 143.448 163.079 145.081 162.961C145.341 162.943 145.603 162.923 145.87 162.9C146.842 162.812 147.873 162.944 148.902 163.074C149.932 163.205 150.962 163.335 151.935 163.248C153.491 163.109 156.188 161.3 157.342 160.413C157.331 160.603 156.445 161.678 152.976 164.453C148.641 167.922 144.2 168.239 140.631 167.747C138.684 167.479 136.104 167.343 134.104 167.282C128.964 169.746 123.594 171.7 118.074 173.117C120.053 172.932 122.657 172.579 124.51 171.991C127.337 171.094 128.999 171.297 130.729 171.509C131.005 171.542 131.282 171.576 131.566 171.606C132.599 171.714 133.651 172.062 134.704 172.409C135.756 172.757 136.807 173.105 137.841 173.213C139.495 173.386 142.662 172.047 144.038 171.356C143.992 171.553 142.858 172.494 138.7 174.686C133.502 177.426 128.046 176.933 124.51 175.407C120.953 173.871 118.97 173.642 117.422 173.462C117.252 173.442 117.088 173.424 116.928 173.403C113.703 174.185 110.429 174.784 107.121 175.195C107.506 175.189 107.876 175.172 108.223 175.141C110.991 174.894 112.479 175.421 114.028 175.969C114.274 176.055 114.522 176.143 114.777 176.229C115.706 176.539 116.606 177.073 117.506 177.609C118.407 178.143 119.306 178.677 120.235 178.987C121.722 179.484 124.886 178.902 126.283 178.547C126.202 178.719 124.981 179.352 120.743 180.515C115.445 181.971 111.233 180.477 108.129 178.59C106.733 177.742 104.907 176.803 103.289 176.017C104.34 176.966 105.714 178.383 107.689 180.43C112.369 185.278 117.19 189.589 121.403 189.589C124.773 189.589 115.646 192.795 110.333 190.963C109.367 187.672 106.053 180.633 102.449 176.099C102.299 176.233 102.176 176.359 102.084 176.475C102.099 176.451 102.117 176.421 102.138 176.386C102.193 176.296 102.269 176.169 102.372 176.004C102.282 175.892 102.192 175.781 102.102 175.673C100.264 175.794 98.4171 175.858 96.5659 175.863C95.7754 175.865 94.9859 175.857 94.1973 175.837C90.3641 180.307 86.7274 187.96 85.7072 191.435C80.3932 193.267 71.2675 190.061 74.6375 190.061C78.8502 190.061 83.6703 185.751 88.3506 180.901C90.8598 178.302 92.3974 176.718 93.5394 175.819C93.3645 175.813 93.1896 175.807 93.0148 175.8C91.1681 176.638 87.9406 178.182 85.7621 179.507C82.6581 181.393 78.4464 182.886 73.1488 181.432C68.9109 180.267 67.6897 179.634 67.6089 179.464C69.0054 179.817 72.1699 180.401 73.6562 179.904C74.5851 179.593 75.4851 179.058 76.3852 178.524C77.2856 177.99 78.185 177.456 79.1143 177.144C79.3693 177.06 79.6172 176.972 79.8632 176.884C81.4125 176.336 82.9006 175.81 85.6684 176.056C87.5395 176.223 90.0955 175.999 91.9666 175.754C86.3894 175.476 80.8763 174.665 75.4997 173.345C75.2046 173.389 74.9008 173.425 74.5783 173.462C73.0303 173.642 71.0474 173.872 67.4901 175.407C63.9538 176.933 58.4975 177.426 53.3002 174.686C49.1424 172.494 48.0087 171.553 47.9617 171.356C49.3382 172.047 52.5047 173.386 54.1587 173.213C55.1925 173.105 56.2446 172.757 57.2966 172.409C58.3487 172.062 59.4009 171.714 60.4346 171.606C60.7174 171.576 60.9935 171.542 61.268 171.509C62.9986 171.297 64.6633 171.094 67.4901 171.991C69.6731 172.684 72.8983 173.052 74.9174 173.2C69.271 171.774 63.7791 169.785 58.5253 167.264C56.4641 167.315 53.5277 167.45 51.3692 167.747C47.8005 168.239 43.3586 167.922 39.0237 164.453C35.5558 161.678 34.6684 160.604 34.6581 160.413C35.8121 161.3 38.509 163.109 40.0652 163.248C41.0378 163.336 42.0679 163.205 43.0979 163.074C44.1279 162.944 45.158 162.812 46.1306 162.9C46.3941 162.923 46.6522 162.942 46.9086 162.96L46.9184 162.961C48.5519 163.079 50.121 163.191 52.5791 164.531C53.5212 165.044 54.7139 165.53 55.9012 165.951C51.3486 163.575 46.9916 160.79 42.8872 157.616C42.8344 157.605 42.7811 157.594 42.7272 157.583C40.7396 157.179 38.1241 156.645 36.1161 156.63C32.5159 156.602 28.0996 156.237 24.274 152.177C21.2135 148.929 20.4794 147.738 20.4948 147.548C21.518 148.593 23.9451 150.772 25.4674 151.134C26.4188 151.36 27.4564 151.379 28.4941 151.399C29.5316 151.417 30.5693 151.436 31.5207 151.662C33.4236 152.115 35.2749 152.85 37.8872 154.799C39.1213 155.719 40.7509 156.51 42.2204 157.095C38.2455 153.959 34.5735 150.499 31.2351 146.765C29.2773 146.121 26.0749 145.141 23.7123 144.664C20.1788 143.951 16.0675 142.183 13.0314 137.463C10.6025 133.687 9.05782 129.334 9.10685 129.151C9.16579 129.239 9.23086 129.337 9.30152 129.443C10.2133 130.815 12.0471 133.573 13.5346 134.189C14.2726 134.494 15.0698 134.805 15.867 135.115C17.4615 135.736 19.0561 136.358 20.1762 136.937C21.9472 137.852 23.632 139.604 25.8521 142.017C27.0669 143.337 28.9548 144.812 30.4702 145.897C26.488 141.322 22.9989 136.349 20.0575 131.059C19.9109 130.953 19.7601 130.844 19.6054 130.732C17.9733 129.549 15.9175 128.059 13.954 126.984C10.7719 125.242 6.94412 122.97 4.88288 117.717C3.23389 113.514 2.98882 112.124 3.07237 111.955C3.63874 113.321 5.0909 116.288 6.36847 117.217C7.16692 117.798 8.12084 118.221 9.07476 118.643C10.0288 119.066 10.9829 119.489 11.7813 120.07C13.313 121.184 14.3919 122.969 15.9847 125.604L16.1914 125.946C16.9242 127.157 18.1851 128.579 19.3798 129.816C17.3192 125.964 15.5459 121.952 14.0805 117.81C13.0396 116.81 11.4769 115.49 9.93991 114.191C8.92596 113.335 7.92319 112.488 7.08878 111.749C3.98934 109 0.889999 104.879 0.447197 98.467C0.092992 93.3378 0.299657 91.7499 0.447197 91.5972C0.594828 93.2763 1.15561 97.0015 2.21832 98.467C2.88247 99.3824 3.76799 100.184 4.65359 100.986C5.53911 101.788 6.42462 102.588 7.08878 103.505C8.41709 105.337 10.8781 109.458 11.7637 113.122C12.2 114.928 13.0185 116.008 13.7797 117.013C13.7937 117.032 13.8077 117.049 13.8216 117.068C13.0093 114.705 12.297 112.3 11.6884 109.86C10.9283 106.812 10.337 103.739 9.91323 100.651L9.7099 100.847C9.77461 100.785 9.84266 100.72 9.91323 100.651C9.84212 100.133 9.77542 99.6127 9.71377 99.0934L9.54974 98.9238C9.16408 98.0531 8.03738 97.1506 6.51286 95.9294C6.07889 95.5817 5.61256 95.2079 5.12199 94.8023C2.93529 92.9928 -1.01072 88.9115 0.239451 80.8216C1.23952 74.3497 2.15685 71.8742 2.4905 71.4454C2.32647 72.9393 2.23787 76.7134 3.19567 79.8585C3.64469 81.333 4.18997 82.5091 4.72876 83.6713C5.62662 85.6077 6.50654 87.5055 6.89311 90.6803C7.21523 93.3257 8.30254 95.577 9.10613 97.2411C9.30234 97.6475 9.48169 98.0186 9.62887 98.3523C9.10648 93.6091 8.97724 88.8429 9.23699 84.1008L8.85305 82.6045C8.60132 81.8331 7.73094 80.3795 6.84669 78.9028C6.39416 78.1471 5.9381 77.3854 5.55929 76.7058C5.49765 76.595 5.43348 76.4812 5.36759 76.364C3.9386 73.8253 1.63122 69.726 3.59539 62.1631C5.23934 55.8335 6.40001 53.4697 6.77486 53.0791C6.46193 54.5473 5.99516 58.2915 6.63227 61.5225C6.82614 62.5055 7.05092 63.5097 7.28165 64.5404C7.99881 67.744 8.7731 71.203 8.85305 75.0761C8.91803 78.2212 9.12289 81.3553 9.28251 83.3316C9.65978 77.4068 10.6445 71.5241 12.2284 65.7777L11.764 64.5769C11.6164 63.3556 11.1441 60.3635 10.4357 58.1652C10.3966 58.0439 10.3558 57.9191 10.3139 57.7906C9.40418 55.0078 7.93535 50.5142 11.3212 43.5099C14.155 37.6478 15.749 35.5716 16.1917 35.2663C15.6013 36.6402 14.4207 40.2125 14.4207 43.5099C14.4207 44.5132 14.4469 45.5437 14.4737 46.6012C14.5575 49.8884 14.6479 53.4377 13.9778 57.2493C13.6456 59.1393 13.3653 61.0361 13.1461 62.6751C14.1515 59.4948 15.3435 56.3622 16.7203 53.294C17.5198 51.5123 18.377 49.7626 19.2899 48.0473L19.2806 44.262C19.3485 43.2404 19.404 40.6165 19.0821 38.2943C18.6797 35.3915 19.7145 31.7697 21.8051 27.1966C23.0931 24.379 25.7626 21.9562 27.0243 20.8111C27.4009 20.4693 27.652 20.2414 27.7037 20.1507C27.5664 20.4793 27.3464 20.8379 27.0853 21.2634C26.4489 22.3009 25.5682 23.7361 25.0471 26.1044C24.6702 27.8168 24.6743 29.6879 24.6783 31.5165C24.6839 34.0848 24.6893 36.5694 23.6393 38.4133C22.8873 39.7335 22.0609 41.8672 21.272 43.9037C21.0202 44.5536 20.7723 45.1936 20.5318 45.7942C23.2347 41.0582 26.3687 36.6018 29.8847 32.4772C29.9155 31.8267 29.9061 31.0608 29.8957 30.2168C29.8838 29.2375 29.8704 28.1525 29.9171 27.0209C29.9292 26.7301 29.94 26.4464 29.9506 26.1694C30.0938 22.4278 30.1908 19.8962 32.4419 17.4034C33.4531 16.2836 35.1798 14.5968 36.8279 12.9869C38.3324 11.5173 39.7714 10.1116 40.5406 9.25976L40.2384 9.59443L38.7699 12.5625C38.74 12.6672 38.6982 12.8093 38.6474 12.9824C38.2215 14.4332 37.1565 18.062 37.0015 20.1513C36.8572 22.0961 36.0003 23.3489 34.7026 25.2466C34.0492 26.2018 33.2839 27.3208 32.4419 28.7733C32.0135 29.5122 31.627 30.2228 31.2843 30.8754C34.7913 26.9593 38.6518 23.3619 42.8209 20.1308C42.9494 18.8314 43.2993 16.4528 44.0863 13.7394C45.1489 10.0755 48.3664 7.02233 49.8423 5.95371L59.1405 0C57.9598 0.915955 55.2441 3.29744 53.8272 5.49574C53.2615 6.37359 52.7861 7.2047 52.3288 8.004C51.3548 9.70667 50.4634 11.265 48.9568 12.8233C47.9407 13.8744 47.2044 14.443 46.5767 14.9278C45.8368 15.4992 45.2477 15.9541 44.5291 16.9451C43.8766 17.845 43.4133 19.0212 43.1187 19.9011ZM181.93 83.6681L180.067 81.3515C179.818 80.8899 179.336 79.5226 178.822 78.0667C178.432 76.9617 178.023 75.8051 177.686 74.9551C176.585 72.1819 174.275 70.1177 170.589 66.8581C168.038 64.6022 166.58 63.5869 166.118 63.2656L166.077 63.2366L166.029 63.2033C166.839 63.9425 168.122 66.3274 168.894 69.288C169.859 72.9887 171.851 76.1336 174.508 78.0077C175.619 78.7915 177.206 80.0282 178.721 81.2085C179.929 82.1505 181.092 83.0567 181.93 83.6681ZM158.739 147.545C158.573 146.554 158.382 145.131 158.182 143.661C157.932 141.821 157.669 139.893 157.432 138.599C156.866 135.503 157.567 132.016 159.316 128.868C160.715 126.349 161.4 123.863 161.336 122.807C161.341 122.835 161.348 122.868 161.355 122.91C161.456 123.447 161.777 125.138 162.024 128.413C162.384 133.151 162.595 136.134 161.538 138.755C160.786 140.616 159.869 142.891 159.426 144.265L158.739 147.545ZM120.332 160.279C120.409 160.159 120.481 160.045 120.545 159.939L120.342 160.271L120.332 160.279ZM60.5186 155.917C60.4525 155.79 60.3912 155.67 60.3353 155.558L60.5102 155.908L60.5186 155.917Z" fill="#E5B168"/>
<path d="M166.865 89.4317C166.865 128.468 135.219 160.114 96.1822 160.114C57.1455 160.114 25.5 128.468 25.5 89.4317C25.5 50.3953 57.1455 18.75 96.1822 18.75C135.219 18.75 166.865 50.3953 166.865 89.4317ZM30.275 89.4317C30.275 125.831 59.7827 155.339 96.1822 155.339C132.582 155.339 162.09 125.831 162.09 89.4317C162.09 53.0325 132.582 23.525 96.1822 23.525C59.7827 23.525 30.275 53.0325 30.275 89.4317Z" fill="#E5B168"/>
<path d="M159.22 89.1732C159.22 124.132 130.881 152.471 95.9225 152.471C60.9642 152.471 32.625 124.132 32.625 89.1732C32.625 54.2146 60.9642 25.875 95.9225 25.875C130.881 25.875 159.22 54.2146 159.22 89.1732ZM34.514 89.1732C34.514 123.088 62.0076 150.582 95.9225 150.582C129.837 150.582 157.331 123.088 157.331 89.1732C157.331 55.2579 129.837 27.764 95.9225 27.764C62.0076 27.764 34.514 55.2579 34.514 89.1732Z" fill="#E5B168"/>
<path d="M85.67 73.7611C85.4835 73.7614 85.3014 73.8236 85.1509 73.9383C85.0013 74.0529 84.8913 74.214 84.8372 74.3978H83.808C83.7755 74.3977 83.7431 74.4042 83.7133 74.4172C83.6836 74.43 83.6565 74.449 83.6331 74.4729L82.1442 76.001C82.1208 76.0244 82.1018 76.0524 82.0892 76.0833C82.0775 76.1141 82.0703 76.1472 82.0703 76.1806V80.6378H81.5746V75.9043L83.3627 74.0679C83.3862 74.0445 83.4042 74.0166 83.4168 73.9857C83.4294 73.9549 83.4357 73.9218 83.4357 73.8884V72.7053C83.6358 72.6441 83.808 72.5111 83.9197 72.3306C84.0324 72.1501 84.0774 71.9342 84.0477 71.7223C84.0171 71.5104 83.9143 71.3167 83.7557 71.1767C83.598 71.0367 83.3961 70.9596 83.1879 70.9596C82.9788 70.9596 82.7769 71.0367 82.6192 71.1767C82.4614 71.3167 82.3578 71.5104 82.3281 71.7223C82.2983 71.9342 82.3434 72.1501 82.4551 72.3306C82.5678 72.5111 82.7399 72.6441 82.9391 72.7053V73.7827L82.7535 73.9737L80.8382 72.0087V71.1745C80.8535 71.1645 80.868 71.1525 80.8806 71.1389L82.4218 69.5585H83.0996C83.159 69.7637 83.2888 69.9401 83.4646 70.0552C83.6403 70.1704 83.8512 70.2169 84.0576 70.1859C84.264 70.155 84.4533 70.0489 84.5894 69.8868C84.7255 69.7249 84.8012 69.518 84.8012 69.3038C84.8012 69.0897 84.7255 68.8827 84.5894 68.7207C84.4533 68.5588 84.264 68.4526 84.0576 68.4217C83.8512 68.3908 83.6403 68.4372 83.4646 68.5523C83.2888 68.6676 83.159 68.8439 83.0996 69.0491H82.319C82.2866 69.049 82.2541 69.0557 82.2244 69.0685C82.1938 69.0814 82.1667 69.1004 82.1442 69.1243L80.8382 70.4627V69.2643C81.0383 69.2016 81.2096 69.067 81.3213 68.8852C81.4331 68.7033 81.4763 68.4863 81.4448 68.2741C81.4132 68.0617 81.3078 67.8683 81.1492 67.7289C80.9896 67.5896 80.7869 67.5138 80.5769 67.5155C80.3678 67.5171 80.1659 67.596 80.009 67.7377C79.8513 67.8795 79.7495 68.0746 79.7206 68.2873C79.6918 68.5001 79.7396 68.7163 79.8531 68.8964C79.9676 69.0765 80.1406 69.2085 80.3416 69.2681V72.1144C80.3416 72.148 80.3479 72.1813 80.3605 72.2123C80.3732 72.2434 80.3921 72.2715 80.4146 72.2952L82.402 74.3341L81.151 75.619C81.1275 75.6424 81.1095 75.6704 81.0969 75.7012C81.0843 75.7321 81.078 75.7652 81.078 75.7986V80.6378H80.457V73.8999C80.457 73.8664 80.4507 73.8333 80.438 73.8024C80.4254 73.7716 80.4074 73.7436 80.384 73.7202L79.334 72.6429V70.7568C79.3412 70.7225 79.3412 70.6868 79.334 70.6524V66.5938C79.5341 66.5342 79.7071 66.4025 79.8207 66.2229C79.9342 66.0432 79.9811 65.8277 79.9523 65.6156C79.9243 65.4034 79.8216 65.209 79.6648 65.0677C79.5079 64.9264 79.3069 64.8478 79.0987 64.8462C78.8896 64.8445 78.6878 64.9201 78.5282 65.059C78.3696 65.1978 78.2651 65.3906 78.2335 65.6024C78.202 65.814 78.2452 66.0303 78.3561 66.2116C78.4669 66.393 78.6382 66.5273 78.8374 66.59V70.0845L77.6531 68.8696C77.6305 68.8456 77.6035 68.8267 77.5738 68.8138C77.5431 68.8009 77.5107 68.7944 77.4782 68.7944H76.6977C76.6382 68.5893 76.5084 68.4129 76.3326 68.2977C76.1567 68.1825 75.9462 68.1361 75.7397 68.167C75.5333 68.1979 75.3445 68.3041 75.208 68.466C75.0715 68.628 74.9964 68.835 74.9964 69.0491C74.9964 69.2633 75.0715 69.4702 75.208 69.6322C75.3445 69.7942 75.5333 69.9003 75.7397 69.9312C75.9462 69.9622 76.1567 69.9157 76.3326 69.8005C76.5084 69.6853 76.6382 69.509 76.6977 69.3038H77.3755L78.8374 70.804V72.7485C78.8374 72.782 78.8437 72.8151 78.8563 72.846C78.8689 72.8768 78.8878 72.9048 78.9104 72.9282L79.9604 74.0055V80.6378H79.3403V75.7986C79.3403 75.7652 79.334 75.7321 79.3214 75.7012C79.3087 75.6704 79.2898 75.6424 79.2673 75.619L77.4782 73.7827V72.7053C77.6783 72.6441 77.8505 72.5111 77.9622 72.3306C78.0749 72.1501 78.1199 71.9342 78.0902 71.7223C78.0596 71.5104 77.9559 71.3167 77.7982 71.1767C77.6405 71.0367 77.4386 70.9596 77.2304 70.9596C77.0213 70.9596 76.8194 71.0367 76.6617 71.1767C76.5039 71.3167 76.4006 71.5104 76.3705 71.7223C76.3404 71.9342 76.3856 72.1501 76.4976 72.3306C76.6103 72.5111 76.7824 72.6441 76.9816 72.7053V73.8884C76.9816 73.9218 76.9879 73.9549 77.0006 73.9857C77.0132 74.0166 77.0321 74.0445 77.0555 74.0679L78.8437 75.9043V80.6378H78.3471V76.1806C78.3471 76.1472 78.3408 76.1141 78.3281 76.0833C78.3155 76.0524 78.2975 76.0244 78.2741 76.001L76.7842 74.4729C76.7617 74.449 76.7347 74.43 76.7049 74.4172C76.6743 74.4042 76.6418 74.3977 76.6094 74.3978H75.5807C75.5211 74.1926 75.3915 74.0162 75.2155 73.901C75.0397 73.7858 74.8293 73.7394 74.6227 73.7704C74.4162 73.8012 74.2275 73.9074 74.0909 74.0693C73.9545 74.2314 73.8794 74.4383 73.8794 74.6525C73.8794 74.8666 73.9545 75.0735 74.0909 75.2355C74.2275 75.3975 74.4162 75.5036 74.6227 75.5345C74.8293 75.5655 75.0397 75.5191 75.2155 75.4038C75.3915 75.2887 75.5211 75.1123 75.5807 74.9071H76.5066L77.8505 76.2863V80.6378H75.3685C75.3027 80.6378 75.2395 80.6647 75.193 80.7124C75.1464 80.7602 75.1203 80.825 75.1203 80.8925C75.1203 80.9601 75.1464 81.0249 75.193 81.0726C75.2395 81.1203 75.3027 81.1472 75.3685 81.1472H85.049C85.1157 81.1472 85.1788 81.1203 85.2248 81.0726C85.2717 81.0249 85.2978 80.9601 85.2978 80.8925C85.2978 80.825 85.2717 80.7602 85.2248 80.7124C85.1788 80.6647 85.1157 80.6378 85.049 80.6378H82.5669V76.2863L83.9116 74.9071H84.8372C84.8832 75.0656 84.9715 75.2078 85.0914 75.3179C85.2122 75.4279 85.36 75.5015 85.5186 75.5304C85.6772 75.5593 85.8404 75.5423 85.99 75.4814C86.1396 75.4204 86.2703 75.318 86.3667 75.1854C86.4632 75.0529 86.5217 74.8954 86.5353 74.7308C86.5497 74.566 86.519 74.4006 86.4469 74.2527C86.3739 74.105 86.2631 73.9807 86.1261 73.8939C85.9891 73.807 85.8314 73.7611 85.67 73.7611ZM82.8156 71.8508C82.8156 71.7752 82.8373 71.7014 82.8778 71.6385C82.9193 71.5757 82.977 71.5267 83.0455 71.4978C83.1131 71.4689 83.1879 71.4613 83.26 71.476C83.333 71.4909 83.3988 71.5272 83.4511 71.5806C83.5033 71.634 83.5385 71.7021 83.5529 71.7762C83.5673 71.8503 83.5601 71.9271 83.5322 71.997C83.5033 72.0668 83.4556 72.1265 83.3943 72.1684C83.333 72.2105 83.2618 72.2328 83.1879 72.2328C83.0887 72.2325 82.9941 72.1922 82.9247 72.1206C82.8553 72.049 82.8156 71.952 82.8156 71.8508ZM83.9323 68.9218C84.0062 68.9218 84.0784 68.9442 84.1396 68.9861C84.2009 69.0282 84.2487 69.0878 84.2766 69.1576C84.3046 69.2274 84.3118 69.3042 84.2974 69.3783C84.2829 69.4524 84.2478 69.5206 84.1955 69.574C84.1432 69.6274 84.0774 69.6638 84.0053 69.6785C83.9332 69.6932 83.8575 69.6857 83.7899 69.6568C83.7223 69.6279 83.6638 69.5789 83.6232 69.5161C83.5817 69.4533 83.5601 69.3793 83.5601 69.3038C83.5601 69.2026 83.5998 69.1055 83.6692 69.034C83.7395 68.9624 83.8341 68.9221 83.9323 68.9218ZM80.2091 68.4124C80.2091 68.3368 80.2308 68.263 80.2713 68.2001C80.3128 68.1373 80.3705 68.0884 80.439 68.0594C80.5065 68.0305 80.5814 68.0229 80.6544 68.0377C80.7265 68.0524 80.7923 68.0888 80.8445 68.1422C80.8968 68.1957 80.932 68.2637 80.9464 68.3378C80.9608 68.4119 80.9536 68.4888 80.9256 68.5586C80.8968 68.6284 80.849 68.6881 80.7878 68.73C80.7274 68.772 80.6553 68.7944 80.5814 68.7944C80.4831 68.7942 80.3885 68.7538 80.3182 68.6822C80.2488 68.6106 80.2091 68.5136 80.2091 68.4124ZM75.8649 69.4312C75.7913 69.4312 75.7194 69.4088 75.6581 69.3667C75.5969 69.3248 75.5491 69.2651 75.521 69.1953C75.4928 69.1255 75.4854 69.0487 75.4998 68.9746C75.5141 68.9004 75.5496 68.8324 75.6017 68.779C75.6538 68.7256 75.7201 68.6892 75.7923 68.6744C75.8646 68.6596 75.9394 68.6672 76.0074 68.6962C76.0755 68.7251 76.1336 68.774 76.1745 68.8369C76.2154 68.8997 76.2373 68.9735 76.2373 69.0491C76.237 69.1504 76.1977 69.2473 76.1279 69.3189C76.0582 69.3905 75.9636 69.4309 75.8649 69.4312ZM78.7193 65.7381C78.7193 65.6625 78.7418 65.5887 78.7824 65.5258C78.8229 65.463 78.8815 65.414 78.9491 65.3851C79.0176 65.3562 79.0924 65.3486 79.1645 65.3633C79.2366 65.3781 79.3033 65.4145 79.3556 65.4679C79.407 65.5213 79.443 65.5894 79.4575 65.6635C79.4719 65.7376 79.4638 65.8144 79.4358 65.8843C79.4079 65.9541 79.3601 66.0138 79.2988 66.0557C79.2375 66.0977 79.1654 66.1201 79.0915 66.1201C78.9933 66.1198 78.8987 66.0795 78.8293 66.0079C78.759 65.9363 78.7202 65.8392 78.7193 65.7381ZM76.8581 71.8508C76.8581 71.7752 76.8798 71.7014 76.9203 71.6385C76.9618 71.5757 77.0195 71.5267 77.088 71.4978C77.1556 71.4689 77.2304 71.4613 77.3025 71.476C77.3755 71.4909 77.4413 71.5272 77.4936 71.5806C77.5458 71.634 77.581 71.7021 77.5954 71.7762C77.6098 71.8503 77.6026 71.9271 77.5747 71.997C77.5458 72.0668 77.4981 72.1265 77.4368 72.1684C77.3755 72.2105 77.3043 72.2328 77.2304 72.2328C77.1312 72.2325 77.0366 72.1922 76.9672 72.1206C76.8978 72.049 76.8581 71.952 76.8581 71.8508ZM74.748 75.0345C74.6743 75.0345 74.6023 75.0121 74.541 74.9701C74.4798 74.9281 74.4322 74.8685 74.4039 74.7986C74.3757 74.7288 74.3683 74.652 74.3828 74.5779C74.3971 74.5038 74.4326 74.4357 74.4846 74.3823C74.5367 74.3289 74.603 74.2925 74.6753 74.2777C74.7475 74.263 74.8224 74.2706 74.8905 74.2995C74.9584 74.3284 75.0166 74.3774 75.0576 74.4402C75.0985 74.503 75.1203 74.5769 75.1203 74.6525C75.12 74.7537 75.0806 74.8507 75.0109 74.9222C74.9411 74.9938 74.8466 75.0342 74.748 75.0345ZM85.67 75.0345C85.5961 75.0345 85.524 75.0121 85.4636 74.9701C85.4023 74.9281 85.3546 74.8685 85.3257 74.7986C85.2978 74.7288 85.2906 74.652 85.305 74.5779C85.3194 74.5038 85.3546 74.4357 85.4068 74.3823C85.4591 74.3289 85.5249 74.2925 85.597 74.2777C85.67 74.263 85.7448 74.2706 85.8124 74.2995C85.8809 74.3284 85.9386 74.3774 85.9801 74.4402C86.0206 74.503 86.0423 74.5769 86.0423 74.6525C86.0423 74.7537 86.0026 74.8507 85.9332 74.9222C85.8629 74.9938 85.7683 75.0342 85.67 75.0345Z" fill="#E5B168"/>
<path d="M83.01 82.2584C83.0956 82.3655 83.1434 82.5104 83.1434 82.6617C83.1434 82.8129 83.0947 82.9579 83.01 83.0648C82.9253 83.1718 82.8099 83.2321 82.6901 83.2325H77.468C77.3472 83.2321 77.2328 83.1718 77.148 83.0647C77.0624 82.9578 77.0146 82.8129 77.0146 82.6617C77.0146 82.5104 77.0624 82.3655 77.148 82.2585C77.2328 82.1515 77.3472 82.0913 77.468 82.0908H82.6901C82.8099 82.0912 82.9253 82.1515 83.01 82.2584Z" fill="#E5B168"/>
<path d="M83.01 83.8262C83.0956 83.9332 83.1434 84.0782 83.1434 84.2294C83.1434 84.3807 83.0947 84.5256 83.01 84.6325C82.9253 84.7394 82.8099 84.7997 82.6901 84.8H77.468C77.3472 84.7997 77.2328 84.7394 77.148 84.6325C77.0624 84.5256 77.0146 84.3806 77.0146 84.2294C77.0146 84.0782 77.0624 83.9333 77.148 83.8264C77.2328 83.7194 77.3472 83.6592 77.468 83.6587H82.6901C82.8099 83.6591 82.9253 83.7193 83.01 83.8262Z" fill="#E5B168"/>
<path d="M80.0791 86.6191C79.3653 86.6191 78.7606 86.0354 78.5479 85.2261H81.6095C81.3968 86.0354 80.793 86.6191 80.0791 86.6191Z" fill="#E5B168"/>
<path fill-rule="evenodd" clip-rule="evenodd" d="M128.955 57.0927C128.121 57.0927 127.149 56.9491 126.316 56.8054C125.371 56.6753 124.427 56.5747 123.509 56.4767C122.4 56.3587 121.33 56.2446 120.342 56.0876C113.119 54.6519 106.313 51.6367 99.9228 47.0422C98.8115 46.1807 97.4226 45.75 96.1725 45.75H95.7552C94.5051 45.75 93.1163 46.1807 92.005 47.0422C85.4761 51.7803 78.8083 54.7954 71.5854 56.0876C69.6407 56.3747 67.6959 56.6619 65.6123 56.8054C64.7789 56.8054 63.8065 56.9491 62.9731 57.0927C58.9447 57.5234 57 60.8256 57 63.8408C57 78.1986 59.5004 90.1155 64.2233 100.741C70.1964 113.95 79.7808 124.574 92.8387 132.184C93.6723 132.615 94.6439 132.902 95.7552 133.046H96.1725C97.2838 133.046 98.2563 132.758 99.0891 132.184C112.147 124.431 121.732 113.95 127.705 100.741C132.428 90.1155 134.789 78.055 135.067 63.8408C134.928 60.8256 132.983 57.5234 128.955 57.0927ZM120.621 96.8634C115.481 108.35 107.007 117.682 95.6164 124.574V89.254H67.696C65.3346 81.9316 64.2233 74.322 64.0844 65.4202H64.7789C64.9873 65.4202 65.1609 65.3843 65.3346 65.3484C65.5081 65.3125 65.6818 65.2766 65.8902 65.2766L67.0015 65.133C68.8072 64.9894 70.752 64.7023 72.6967 64.4151C80.8921 62.8357 88.3935 59.5335 95.7552 54.2211V89.254H123.815C122.982 91.8385 121.871 94.2793 120.621 96.8634ZM121.228 67.7306V73.1768L126.048 73.9801C126.197 74.0049 126.334 74.0767 126.44 74.1849C126.544 74.2931 126.612 74.4322 126.632 74.5817C126.652 74.7311 126.624 74.8832 126.552 75.0155C126.479 75.1477 126.367 75.2535 126.23 75.3169L121.359 77.5907C118.634 78.8614 115.599 79.5786 112.395 79.5786C109.19 79.5786 106.153 78.8617 103.43 77.5907L98.5582 75.3169C98.4212 75.2535 98.3086 75.1478 98.2365 75.0155C98.1644 74.8833 98.1364 74.7314 98.1562 74.5821C98.177 74.4326 98.2446 74.2937 98.35 74.1854C98.4546 74.0772 98.5916 74.0052 98.7403 73.9801L103.562 73.1766V67.7306C103.562 65.5345 105.34 63.7564 107.536 63.7564C108.421 63.7564 109.24 64.0457 109.898 64.5353L109.908 64.5432C109.945 64.5722 109.982 64.6014 110.02 64.6286C110.705 65.1431 111.539 65.4203 112.395 65.4179C113.283 65.4179 114.098 65.1287 114.759 64.6372C114.762 64.6358 114.769 64.6305 114.771 64.6286C114.808 64.6014 114.845 64.5723 114.882 64.5433L114.892 64.5353C115.575 64.0316 116.406 63.7548 117.255 63.7564C119.449 63.7564 121.228 65.5345 121.228 67.7306ZM103.562 73.3069C103.562 74.2162 107.517 74.955 112.395 74.955C117.273 74.955 121.228 74.2162 121.228 73.3069V74.3551C121.228 75.2645 117.273 76.0032 112.395 76.0032C107.517 76.0032 103.562 75.2645 103.562 74.3551V73.3069ZM87.786 100.271C87.7239 100.43 87.6328 100.574 87.5175 100.695C87.403 100.817 87.2669 100.913 87.1173 100.979C86.9677 101.045 86.8064 101.078 86.6441 101.078C86.4819 101.078 86.3215 101.045 86.1718 100.979C86.0222 100.913 85.8861 100.817 85.7708 100.695L81.8403 96.5278C81.7231 96.4048 81.6312 96.2575 81.5681 96.0962C81.5645 96.0841 81.5591 96.0729 81.5546 96.0617C81.5437 96.0384 81.5347 96.017 81.5347 95.9955C81.4996 95.8706 81.4825 95.7419 81.4816 95.6133C81.4825 95.3551 81.5555 95.1024 81.6907 94.888C81.8267 94.6736 82.0196 94.5058 82.2449 94.4079C82.4712 94.3091 82.719 94.283 82.9579 94.3343C83.1976 94.3846 83.4175 94.5095 83.5897 94.6922L87.5175 98.8463C87.6328 98.9675 87.7239 99.112 87.786 99.2705C87.8473 99.429 87.8798 99.5996 87.8798 99.7711C87.8798 99.9426 87.8473 100.112 87.786 100.271ZM90.7612 111.046L83.5031 103.373C83.7411 103.016 84.0331 102.703 84.3675 102.446L91.6219 110.135C91.7391 110.252 91.8076 110.414 91.813 110.585C91.813 110.715 91.776 110.84 91.7084 110.947C91.6409 111.054 91.5444 111.137 91.4317 111.186C91.3191 111.236 91.1956 111.249 91.0766 111.224C90.9568 111.198 90.8468 111.137 90.7612 111.046ZM82.3216 104.439L82.2783 104.389L78.3532 100.234L78.254 100.14C78.9832 99.9203 79.6474 99.5063 80.1837 98.9395C80.72 98.3718 81.1102 97.6689 81.3184 96.897C81.3464 96.9324 81.377 96.9688 81.4076 97.0014L85.3327 101.155L85.376 101.198C84.6541 101.43 83.997 101.846 83.4635 102.411C82.9308 102.977 82.5379 103.673 82.3216 104.439ZM75.9023 102.12C75.8399 101.962 75.8075 101.791 75.8072 101.62L75.7979 101.623C75.7979 101.277 75.928 100.944 76.1595 100.699C76.391 100.454 76.7047 100.316 77.0319 100.316C77.1599 100.316 77.287 100.336 77.4086 100.378C77.4375 100.385 77.4654 100.395 77.4925 100.408C77.6511 100.471 77.7944 100.569 77.9152 100.695L81.843 104.853C81.9637 104.978 82.0575 105.128 82.1179 105.294C82.1269 105.319 82.1359 105.344 82.1422 105.369C82.1837 105.501 82.2044 105.639 82.2044 105.778C82.2044 105.949 82.1719 106.119 82.1106 106.278C82.0485 106.437 81.9574 106.58 81.843 106.702C81.7285 106.823 81.5924 106.92 81.4428 106.986C81.2923 107.051 81.1318 107.085 80.9696 107.085C80.8074 107.085 80.647 107.051 80.4973 106.986C80.3468 106.92 80.2107 106.823 80.0963 106.702L76.1714 102.544C76.0563 102.422 75.9648 102.279 75.9023 102.12ZM82.7379 109.808H75.3321C75.0866 109.808 74.8511 109.911 74.6775 110.095C74.5039 110.278 74.4063 110.528 74.4063 110.788C74.4063 111.047 74.5039 111.297 74.6775 111.481C74.8511 111.665 75.0866 111.768 75.3321 111.768H82.7379C82.9831 111.768 83.2192 111.665 83.3923 111.481C83.5662 111.297 83.6636 111.047 83.6636 110.788C83.6636 110.528 83.5662 110.278 83.3923 110.095C83.2192 109.911 82.9831 109.808 82.7379 109.808Z" fill="#E5B168"/>
<path d="M111.303 99.912L105.281 110.053C105.211 110.195 105.004 110.124 105.004 109.982L105.973 103.245C105.973 103.174 105.904 103.103 105.835 103.103H101.474C101.336 103.103 101.266 102.961 101.336 102.89L107.357 92.7486C107.427 92.6069 107.635 92.6778 107.635 92.8195L106.665 99.5568C106.665 99.6276 106.735 99.6985 106.804 99.6985H111.164C111.303 99.6985 111.373 99.8411 111.303 99.912Z" fill="#E5B168"/>
</svg>
